<svg xmlns="http://www.w3.org/2000/svg" width="350" height="88" viewBox="0 0 350 88"><defs><style>.a{fill:#1565c0;}</style></defs><path class="a" d="M44,88h-.35l0-1.47H44c1.32,0,2.64-.06,4-.18l.13,1.46C46.74,87.94,45.37,88,44,88Zm-4-.18c-1.47-.14-2.95-.35-4.39-.62l.28-1.44c1.39.27,2.82.47,4.24.6Zm11.77-.5-.25-1.44a42.71,42.71,0,0,0,4.17-1l.4,1.42C54.66,86.73,53.2,87.06,51.75,87.32ZM32,86.34a44.11,44.11,0,0,1-4.2-1.42l.54-1.37a42,42,0,0,0,4.05,1.38Zm27.58-1.17-.52-1.38c1.33-.5,2.65-1.08,3.93-1.71l.65,1.31C62.32,84.05,61,84.64,59.58,85.17ZM24.42,83.41c-1.32-.66-2.62-1.39-3.86-2.17L21.34,80c1.21.76,2.46,1.46,3.73,2.1ZM66.87,81.6l-.76-1.25a42.42,42.42,0,0,0,3.54-2.41l.89,1.17A43,43,0,0,1,66.87,81.6ZM17.52,79.14a44.2,44.2,0,0,1-3.4-2.85l1-1.08A40.8,40.8,0,0,0,18.4,78Zm55.87-2.38-1-1.09c1.06-1,2.08-2,3-3l1.08,1C75.54,74.72,74.48,75.77,73.39,76.76ZM11.52,73.67a43.87,43.87,0,0,1-2.83-3.42l1.18-.87c.85,1.14,1.77,2.25,2.73,3.3ZM78.91,70.8l-1.17-.89c.87-1.13,1.69-2.32,2.44-3.52l1.25.77C80.65,68.41,79.8,69.64,78.91,70.8ZM6.61,67.2c-.77-1.25-1.5-2.56-2.14-3.88l1.31-.64c.63,1.27,1.33,2.53,2.08,3.74Zm76.63-3.26-1.3-.67a42.67,42.67,0,0,0,1.74-3.91l1.37.53A43.1,43.1,0,0,1,83.24,63.94ZM3,59.94a41.53,41.53,0,0,1-1.4-4.21L3,55.34c.38,1.37.84,2.74,1.35,4.07Zm83.25-3.55L84.83,56a42.16,42.16,0,0,0,1-4.17l1.44.27C87,53.53,86.65,55,86.24,56.39ZM.76,52.13a42.87,42.87,0,0,1-.59-4.39l1.46-.12a42.76,42.76,0,0,0,.57,4.24Zm87-3.7-1.46-.15c.14-1.41.21-2.85.21-4.28v0H88v0A43.51,43.51,0,0,1,87.78,48.43ZM1.47,44H0v0c0-1.46.08-2.93.22-4.37l1.46.14c-.14,1.4-.21,2.82-.21,4.23Zm84.92-3.7a42.78,42.78,0,0,0-.58-4.24l1.44-.27c.27,1.44.47,2.92.6,4.39ZM2.18,36.23.74,36c.27-1.45.61-2.9,1-4.31l1.41.41A41.93,41.93,0,0,0,2.18,36.23ZM85,32.61c-.38-1.37-.84-2.74-1.35-4.06L85,28a41.53,41.53,0,0,1,1.4,4.21ZM4.32,28.68,3,28.16c.53-1.38,1.14-2.74,1.8-4.05l1.31.66C5.42,26,4.83,27.36,4.32,28.68Zm77.89-3.4c-.63-1.28-1.33-2.54-2.08-3.75l1.25-.77c.78,1.25,1.5,2.55,2.15,3.87ZM7.81,21.66l-1.25-.78c.78-1.25,1.62-2.47,2.52-3.64l1.17.89A42.59,42.59,0,0,0,7.81,21.66Zm70.31-3.07c-.85-1.14-1.77-2.26-2.73-3.31l1.08-1c1,1.09,1.94,2.24,2.82,3.42Zm-65.58-3.2-1.09-1a44,44,0,0,1,3.14-3.12l1,1.09C14.52,13.32,13.49,14.34,12.54,15.39Zm60.33-2.64c-1.05-1-2.16-1.89-3.29-2.74l.88-1.18c1.17.89,2.32,1.85,3.4,2.85ZM18.33,10.09l-.89-1.17A42.87,42.87,0,0,1,21.1,6.43l.77,1.25A40.83,40.83,0,0,0,18.33,10.09ZM66.64,8c-1.21-.76-2.47-1.47-3.74-2.1l.65-1.31a42,42,0,0,1,3.87,2.17ZM25,6l-.66-1.32C25.65,4,27,3.38,28.39,2.85l.52,1.37A42.78,42.78,0,0,0,25,6ZM59.63,4.43a41,41,0,0,0-4.05-1.37L56,1.65a44,44,0,0,1,4.2,1.41ZM32.3,3.1l-.4-1.41a42.09,42.09,0,0,1,4.31-1l.26,1.44A42.71,42.71,0,0,0,32.3,3.1Zm19.8-.86c-1.39-.27-2.82-.47-4.24-.6L48,.18A42.93,42.93,0,0,1,52.38.8ZM40,1.65,39.87.19C41.24.06,42.63,0,44,0h.29V1.47H44C42.68,1.47,41.33,1.53,40,1.65ZM69.55,58H47.49a4.44,4.44,0,0,1-3.92-2.32l-2.54-5a13,13,0,0,1,0-12l1.63.83a11.1,11.1,0,0,0,0,10.3l2.54,5a2.59,2.59,0,0,0,2.29,1.32H69.55a2.59,2.59,0,0,0,2.28-1.33,21.76,21.76,0,0,0,0-20.16,2.52,2.52,0,0,0-2.28-1.24H48.77l-1.1-1.84h6.51a217.8,217.8,0,0,0-28.54-5.92A19.49,19.49,0,0,0,23,31.56H41.13A4.34,4.34,0,0,1,45,33.78l2.55,4.91a13,13,0,0,1,0,12L46,49.81a11.15,11.15,0,0,0,0-10.3l-2.55-4.89a2.49,2.49,0,0,0-2.28-1.22H19.07a2.51,2.51,0,0,0-2.29,1.21,21.89,21.89,0,0,0,0,20.22,2.58,2.58,0,0,0,2.29,1.3H40L41.07,58h-22a4.44,4.44,0,0,1-3.92-2.32,23.61,23.61,0,0,1,0-21.84,4.39,4.39,0,0,1,3.92-2.24h2a22.71,22.71,0,0,1,3.34-7.45l.3-.49.55,0c1.66.17,3.55.43,5.58.78a11.16,11.16,0,0,1,2.5-4.09l.35-.36.5.17C47,23.1,62.1,30.46,64.05,31.56h5.5a4.34,4.34,0,0,1,3.91,2.22,23.65,23.65,0,0,1,0,21.89A4.42,4.42,0,0,1,69.55,58ZM59.14,31.56h1c-6-2.56-16.49-7.26-25.91-9.5a9.81,9.81,0,0,0-1.6,2.77A210.75,210.75,0,0,1,59.14,31.56Zm50,12.88a13.92,13.92,0,0,1,.83-4.68,13,13,0,0,1,2.4-4.16,12.39,12.39,0,0,1,3.87-3,11.42,11.42,0,0,1,5.22-1.15,10.71,10.71,0,0,1,5.94,1.59A9.76,9.76,0,0,1,131,37.14L129.5,38a8.21,8.21,0,0,0-1.59-2.27,8.6,8.6,0,0,0-4.27-2.31,11,11,0,0,0-2.32-.26,9.33,9.33,0,0,0-4.4,1,10.29,10.29,0,0,0-3.22,2.62,11.38,11.38,0,0,0-2,3.65,12.9,12.9,0,0,0-.68,4.09,12.09,12.09,0,0,0,.81,4.4,12.25,12.25,0,0,0,2.2,3.68,10.83,10.83,0,0,0,3.3,2.55,9,9,0,0,0,4.11,1,10.09,10.09,0,0,0,2.4-.29,9.76,9.76,0,0,0,2.38-.92,9.49,9.49,0,0,0,2.15-1.59A9,9,0,0,0,130,51l1.57.77a8.91,8.91,0,0,1-1.78,2.6,10.89,10.89,0,0,1-2.51,1.91,12.3,12.3,0,0,1-3,1.15,12.59,12.59,0,0,1-3.06.39,10.23,10.23,0,0,1-4.9-1.18,12.94,12.94,0,0,1-3.83-3.06,14.37,14.37,0,0,1-2.51-4.29A13.82,13.82,0,0,1,109.15,44.44Zm47.42-12.88v26h-1.84V45.13h-16.5V57.6H136.4v-26h1.83v12.1h16.5V31.56Zm4,26,11.08-26h1.54l11.07,26h-2l-3.63-8.44H166.2l-3.63,8.44Zm11.85-23.54-5.8,13.64h11.48Zm16,23.54v-26h1.83v26ZM199.1,35.12V57.6h-1.83v-26h1.27l18.16,23v-23h1.83v26H217Zm45.64,15.77a6.4,6.4,0,0,1-.55,2.66,6.57,6.57,0,0,1-1.5,2.14,6.82,6.82,0,0,1-2.24,1.41,7.05,7.05,0,0,1-2.71.5H225.5v-26h12.2a5.15,5.15,0,0,1,2.46.61A6.19,6.19,0,0,1,242,33.7a7.29,7.29,0,0,1,1.61,4.54,6.92,6.92,0,0,1-1,3.63,5.84,5.84,0,0,1-2.75,2.42,6.48,6.48,0,0,1,3.54,2.47A6.9,6.9,0,0,1,244.74,50.89ZM227.33,33.4V43.66H237a4.15,4.15,0,0,0,1.94-.42,4.94,4.94,0,0,0,1.53-1.14,5.38,5.38,0,0,0,1-1.67,5.22,5.22,0,0,0,.37-1.94,5.71,5.71,0,0,0-.35-2,5.36,5.36,0,0,0-1-1.65,4.47,4.47,0,0,0-1.45-1.09,4.11,4.11,0,0,0-1.87-.36Zm15.54,17.23a5.61,5.61,0,0,0-1.39-3.72,5.13,5.13,0,0,0-1.56-1.26,4.31,4.31,0,0,0-1.92-.52H227.33v11h10.41a4.9,4.9,0,0,0,2-.53,5.15,5.15,0,0,0,1.61-1.24,6.25,6.25,0,0,0,1.08-1.72A5.15,5.15,0,0,0,242.87,50.63Zm17.57,7.19a10.73,10.73,0,0,1-4.95-1.14,12.5,12.5,0,0,1-3.85-3,13.21,13.21,0,0,1-2.5-4.21,14.16,14.16,0,0,1-.88-4.88,13.41,13.41,0,0,1,.94-5,13.93,13.93,0,0,1,2.56-4.21,12.21,12.21,0,0,1,3.87-2.92,11,11,0,0,1,4.84-1.08,10.62,10.62,0,0,1,4.95,1.15,12.48,12.48,0,0,1,3.83,3,14,14,0,0,1,2.48,4.23,13.83,13.83,0,0,1-2.62,14,12.49,12.49,0,0,1-3.85,2.9A10.88,10.88,0,0,1,260.44,57.82Zm-10.31-13.2a12.57,12.57,0,0,0,.75,4.31A11.69,11.69,0,0,0,253,52.59a10.49,10.49,0,0,0,3.26,2.55,9.07,9.07,0,0,0,4.17,1,9,9,0,0,0,4.23-1,10.61,10.61,0,0,0,3.25-2.63A12,12,0,0,0,270,48.8a12.39,12.39,0,0,0,0-8.49,11.91,11.91,0,0,0-2.15-3.67,10.37,10.37,0,0,0-3.26-2.54,9,9,0,0,0-4.12-1,9.1,9.1,0,0,0-4.26,1,10.34,10.34,0,0,0-3.24,2.62,12.67,12.67,0,0,0-2.81,7.87Zm36.71-12.69h1.83l3.89,9.46,3.88-9.46h1.84l-4.59,10.89,5.47,12.63,10-23.89h2.05L300,57.6h-1.73l-5.72-13.39L286.84,57.6h-1.73L274,31.56h2l10,23.86,5.39-12.61ZM308.73,57.6V54.66h1.84V57.6Zm9.17,0v-26h1.83v26Zm19.24.22a10.73,10.73,0,0,1-4.95-1.14,12.62,12.62,0,0,1-3.85-3,13.37,13.37,0,0,1-2.49-4.21,13.93,13.93,0,0,1-.88-4.88,13.6,13.6,0,0,1,.93-5,14,14,0,0,1,2.57-4.21,12.21,12.21,0,0,1,3.87-2.92,11,11,0,0,1,4.84-1.08,10.62,10.62,0,0,1,4.95,1.15,12.48,12.48,0,0,1,3.83,3,14.23,14.23,0,0,1,2.48,4.23,13.84,13.84,0,0,1,.88,4.79,13.85,13.85,0,0,1-3.51,9.22,12.37,12.37,0,0,1-3.85,2.9A10.82,10.82,0,0,1,337.14,57.82Zm-10.3-13.2a12.57,12.57,0,0,0,.75,4.31,11.51,11.51,0,0,0,2.13,3.66A10.26,10.26,0,0,0,333,55.14a9.53,9.53,0,0,0,8.4,0,10.46,10.46,0,0,0,3.24-2.63,11.84,11.84,0,0,0,2.09-3.68,12.31,12.31,0,0,0,0-8.49,12.11,12.11,0,0,0-2.15-3.67,10.49,10.49,0,0,0-3.26-2.54,9.49,9.49,0,0,0-8.38,0,10.49,10.49,0,0,0-3.25,2.62,12.58,12.58,0,0,0-2.8,7.87Z"/></svg>